<?xml version="1.0" encoding="UTF-8" standalone="no"?>
<svg
   xmlns:dc="http://purl.org/dc/elements/1.1/"
   xmlns:cc="http://creativecommons.org/ns#"
   xmlns:rdf="http://www.w3.org/1999/02/22-rdf-syntax-ns#"
   xmlns:svg="http://www.w3.org/2000/svg"
   xmlns="http://www.w3.org/2000/svg"
   xmlns:sodipodi="http://sodipodi.sourceforge.net/DTD/sodipodi-0.dtd"
   xmlns:inkscape="http://www.inkscape.org/namespaces/inkscape"
   viewBox="0 0 562 447.89999"
   version="1.1"
   id="svg835"
   sodipodi:docname="bootstrap.svg"
   width="562"
   height="447.89999"
   inkscape:version="1.0.2 (e86c8708, 2021-01-15)">
   <title>Bootstrap</title>
  <metadata
     id="metadata841">
    <rdf:RDF>
      <cc:Work
         rdf:about="">
        <dc:format>image/svg+xml</dc:format>
        <dc:type
           rdf:resource="http://purl.org/dc/dcmitype/StillImage" />
      </cc:Work>
    </rdf:RDF>
  </metadata>
  <defs
     id="defs839" />
  <sodipodi:namedview
     pagecolor="#ffffff"
     bordercolor="#666666"
     borderopacity="1"
     objecttolerance="10"
     gridtolerance="10"
     guidetolerance="10"
     inkscape:pageopacity="0"
     inkscape:pageshadow="2"
     inkscape:window-width="870"
     inkscape:window-height="480"
     id="namedview837"
     showgrid="false"
     inkscape:zoom="1.0729167"
     inkscape:cx="281"
     inkscape:cy="224"
     inkscape:window-x="0"
     inkscape:window-y="25"
     inkscape:window-maximized="0"
     inkscape:current-layer="svg835" />
  <path
     d="m 326.5,169.4 c 0,-22.1 -15.6,-34.3 -43,-34.3 h -50.4 v 71.2 h 42.5 c 32.8,-0.1 50.9,-13.3 50.9,-36.9 z M 510,156.6 C 500.5,125.7 499.1,87.8 500.2,58.5 501.3,28 477.5,0 445.5,0 H 116.7 C 84.6,0 60.9,28.1 62,58.5 c 1,29.3 -0.3,67.2 -9.8,98.1 -9.6,31 -25.7,50.6 -52.2,53.1 v 28.5 c 26.4,2.5 42.6,22.1 52.2,53.1 9.5,30.9 10.9,68.8 9.8,98.1 -1.1,30.5 22.7,58.5 54.7,58.5 h 328.7 c 32.1,0 55.8,-28.1 54.7,-58.5 -1,-29.3 0.3,-67.2 9.8,-98.1 9.6,-31 25.7,-50.6 52.1,-53.1 v -28.5 c -26.3,-2.5 -42.5,-22.1 -52,-53.1 z M 293.2,343.1 H 195.3 V 104.8 h 97.4 c 43.3,0 71.7,23.4 71.7,59.4 0,25.3 -19.1,47.9 -43.5,51.8 v 1.3 c 33.2,3.6 55.5,26.6 55.5,58.3 0,42.1 -31.3,67.5 -83.2,67.5 z m -10,-108.7 h -50.1 v 78.4 h 52.3 c 34.2,0 52.3,-13.7 52.3,-39.5 0,-25.7 -18.6,-38.9 -54.5,-38.9 z"
     id="path833" />
</svg>
