<?xml version="1.0" encoding="UTF-8" standalone="no"?>
<svg
   xmlns:dc="http://purl.org/dc/elements/1.1/"
   xmlns:cc="http://creativecommons.org/ns#"
   xmlns:rdf="http://www.w3.org/1999/02/22-rdf-syntax-ns#"
   xmlns:svg="http://www.w3.org/2000/svg"
   xmlns="http://www.w3.org/2000/svg"
   xmlns:sodipodi="http://sodipodi.sourceforge.net/DTD/sodipodi-0.dtd"
   xmlns:inkscape="http://www.inkscape.org/namespaces/inkscape"
   role="img"
   viewBox="0 0 17.700258 23.999605"
   version="1.1"
   id="svg837"
   sodipodi:docname="java.svg"
   width="17.700258"
   height="23.999605"
   inkscape:version="1.0.2 (e86c8708, 2021-01-15)">
  <metadata
     id="metadata843">
    <rdf:RDF>
      <cc:Work
         rdf:about="">
        <dc:format>image/svg+xml</dc:format>
        <dc:type
           rdf:resource="http://purl.org/dc/dcmitype/StillImage" />
      </cc:Work>
    </rdf:RDF>
  </metadata>
  <defs
     id="defs841" />
  <sodipodi:namedview
     pagecolor="#ffffff"
     bordercolor="#666666"
     borderopacity="1"
     objecttolerance="10"
     gridtolerance="10"
     guidetolerance="10"
     inkscape:pageopacity="0"
     inkscape:pageshadow="2"
     inkscape:window-width="1253"
     inkscape:window-height="624"
     id="namedview839"
     showgrid="false"
     inkscape:zoom="25.75"
     inkscape:cx="9.0055974"
     inkscape:cy="0.73786408"
     inkscape:window-x="0"
     inkscape:window-y="25"
     inkscape:window-maximized="0"
     inkscape:current-layer="svg837" />
  <title
     id="title833" >Java</title>
  <path
     d="m 5.7012576,18.56 c 0,0 -0.917,0.534 0.653,0.714 1.902,0.218 2.874,0.187 4.9690004,-0.211 0,0 0.552,0.346 1.321,0.646 C 7.9452576,21.722 2.0112576,19.591 5.7012576,18.56 m -0.575,-2.627 c 0,0 -1.028,0.761 0.542,0.924 2.032,0.209 3.636,0.227 6.4130004,-0.308 0,0 0.384,0.389 0.987,0.602 -5.6790004,1.661 -12.0070004,0.13 -7.9420004,-1.218 m 4.84,-4.458 c 1.1580004,1.333 -0.304,2.533 -0.304,2.533 0,0 2.9390004,-1.518 1.5890004,-3.418 -1.2610004,-1.772 -2.2280004,-2.652 3.007,-5.688 0,-0.001 -8.2160004,2.051 -4.2920004,6.573 m 6.2140004,9.029 c 0,0 0.679,0.559 -0.747,0.991 -2.712,0.822 -11.2880004,1.069 -13.6690004,0.033 -0.85600001,-0.373 0.75,-0.89 1.254,-0.998 0.527,-0.114 0.828,-0.093 0.828,-0.093 -0.953,-0.671 -6.156,1.317 -2.643,1.887 9.5800004,1.553 17.4620004,-0.7 14.9770004,-1.82 M 6.1422576,13.21 c 0,0 -4.362,1.036 -1.544,1.412 1.189,0.159 3.561,0.123 5.7700004,-0.062 1.806,-0.152 3.618,-0.477 3.618,-0.477 0,0 -0.637,0.272 -1.098,0.587 -4.4290004,1.165 -12.98600041,0.623 -10.5220004,-0.568 2.082,-1.006 3.776,-0.892 3.776,-0.892 m 7.8240004,4.374 c 4.503,-2.34 2.421,-4.589 0.968,-4.285 -0.355,0.074 -0.515,0.138 -0.515,0.138 0,0 0.132,-0.207 0.385,-0.297 2.875,-1.011 5.086,2.981 -0.928,4.562 0,-0.001 0.07,-0.062 0.09,-0.118 M 11.251258,0 c 0,0 2.494,2.494 -2.3650004,6.33 -3.896,3.077 -0.888,4.832 -0.001,6.836 -2.274,-2.053 -3.943,-3.858 -2.824,-5.539 C 7.7052576,5.158 12.258258,3.962 11.251258,0 M 6.5842576,23.924 c 4.3220004,0.277 10.9590004,-0.153 11.1160004,-2.198 0,0 -0.302,0.775 -3.572,1.391 -3.688,0.694 -8.2390004,0.613 -10.9370004,0.168 0,-0.001 0.553,0.457 3.393,0.639"
     id="path835" />
</svg>
