<svg xmlns="http://www.w3.org/2000/svg" xmlns:xlink="http://www.w3.org/1999/xlink" width="362.22" height="142.546" viewBox="0 0 95.837 37.715"><defs><path id="e" d="M101.81 82.204h18.146v19.603H101.81z"/><path id="c" d="M-53.154-185.61h218.397v48.104H-53.154z"/><path id="d" d="M-53.154-185.61h238.421v35.088H-53.154z"/><linearGradient xlink:href="#a" id="b" x1="131.97" x2="274.571" y1="273.67" y2="380.58" gradientTransform="matrix(1.09352 -.16245 .0563 1.08404 -12.13 -5.694)" gradientUnits="userSpaceOnUse"/><linearGradient id="a"><stop offset="0" style="stop-color:#d40000;stop-opacity:1"/><stop offset="1" style="stop-color:red;stop-opacity:0"/></linearGradient></defs><path d="M223.07 152.663c9.398-26.554-2.781-89.987-71.853-97.274-67.99-7.173-98.593 54.324-99.238 68.537-.712 15.712 7.818 23.993 7.818 23.993 3.584 22.83-17.282 29.727-15.505 37.544 1.476 6.487 15.457 6.642 15.457 6.642 2.253 5.634-8.183 13.655-8.183 13.655 1.34 4.724 3.427 7.705 10.97 5.674-7.847 4.332-6.339 11.14-.83 15.515 0 0 4.89-5.771 8.775-1.681 2.62 2.758-4.989 9.44.915 17.84 7.36 10.469 38.37-1.871 38.37-1.871 49.655-18.04 58.92-29.843 69.81-49.88 4.613-8.485 7.858-11.394 13.442-16.133 8.45-7.172 25.083-10.104 30.052-22.561z" style="fill:#b6743c;fill-opacity:1;stroke:none;stroke-width:.264583px;stroke-linecap:butt;stroke-linejoin:miter;stroke-opacity:1" transform="matrix(.06407 0 0 .06407 .444 5.906)"/><g style="display:inline;mix-blend-mode:normal"><path d="M126.03 251.117c-149.608 79.815-23.053 106.896-39.795 217.52 151.646-56.722 323.326-92.8 153.193-272.493-48.352-47.12-67.696 30.592-113.397 54.973Z" style="opacity:1;mix-blend-mode:darken;fill:url(#b);fill-opacity:1;fill-rule:nonzero;stroke:none;stroke-width:.435713px;stroke-linecap:butt;stroke-linejoin:miter;stroke-opacity:1" transform="matrix(.06407 0 0 .06407 .444 5.906)"/></g><g style="display:inline" transform="matrix(.06407 0 0 .06407 .444 5.906)"><ellipse cx="127.47" cy="95.255" rx="52.909" ry="61.256" style="opacity:1;fill:#2b1100;fill-opacity:1;fill-rule:evenodd;stroke:none;stroke-width:6.75747;stroke-linejoin:miter;stroke-miterlimit:4;stroke-dasharray:none;stroke-dashoffset:0;paint-order:normal"/><ellipse cx="190.929" cy="142.234" rx="57.613" ry="64.809" style="opacity:1;fill:#2b1100;fill-opacity:1;fill-rule:evenodd;stroke:none;stroke-width:8.73179;stroke-linejoin:miter;stroke-miterlimit:4;stroke-dasharray:none;stroke-dashoffset:0;paint-order:normal"/><ellipse cx="82.276" cy="191.951" rx="43.416" ry="61.752" style="opacity:1;fill:#301a0e;fill-opacity:1;fill-rule:evenodd;stroke:none;stroke-width:6.75757;stroke-linejoin:miter;stroke-miterlimit:4;stroke-dasharray:none;stroke-dashoffset:0;paint-order:normal" transform="matrix(.73087 -.68251 .67673 .73623 0 0)"/><ellipse cx="109.574" cy="35.71" rx="20.735" ry="21.98" style="opacity:1;fill:#2b1100;fill-opacity:1;fill-rule:evenodd;stroke:none;stroke-width:6.75747;stroke-linejoin:miter;stroke-miterlimit:4;stroke-dasharray:none;stroke-dashoffset:0;paint-order:normal" transform="rotate(16.094)"/><ellipse cx="112.456" cy="43.728" rx="32.174" ry="34.231" style="opacity:1;fill:#2b1100;fill-opacity:1;fill-rule:evenodd;stroke:none;stroke-width:6.75747;stroke-linejoin:miter;stroke-miterlimit:4;stroke-dasharray:none;stroke-dashoffset:0;paint-order:normal"/><ellipse cx="80.066" cy="77.4" rx="37.537" ry="33.871" style="opacity:1;fill:#2b1100;fill-opacity:1;fill-rule:evenodd;stroke:none;stroke-width:6.75747;stroke-linejoin:miter;stroke-miterlimit:4;stroke-dasharray:none;stroke-dashoffset:0;paint-order:normal"/><ellipse cx="200.222" cy="217.228" rx="16.726" ry="25.924" style="opacity:1;fill:#2b1100;fill-opacity:1;fill-rule:evenodd;stroke:none;stroke-width:8.73179;stroke-linejoin:miter;stroke-miterlimit:4;stroke-dasharray:none;stroke-dashoffset:0;paint-order:normal"/><ellipse cx="202.08" cy="253.799" rx="26.019" ry="30.09" style="opacity:1;fill:#2b1100;fill-opacity:1;fill-rule:evenodd;stroke:none;stroke-width:8.73179;stroke-linejoin:miter;stroke-miterlimit:4;stroke-dasharray:none;stroke-dashoffset:0;paint-order:normal"/><ellipse cx="191.858" cy="294.073" rx="15.797" ry="24.998" style="opacity:1;fill:#2b1100;fill-opacity:1;fill-rule:evenodd;stroke:none;stroke-width:8.73179;stroke-linejoin:miter;stroke-miterlimit:4;stroke-dasharray:none;stroke-dashoffset:0;paint-order:normal"/><ellipse cx="172.762" cy="218.5" rx="20.908" ry="27.775" style="opacity:1;fill:#301a0e;fill-opacity:1;fill-rule:evenodd;stroke:none;stroke-width:8.73179;stroke-linejoin:miter;stroke-miterlimit:4;stroke-dasharray:none;stroke-dashoffset:0;paint-order:normal"/><ellipse cx="167.698" cy="256.577" rx="10.222" ry="22.683" style="opacity:1;fill:#2b1100;fill-opacity:1;fill-rule:evenodd;stroke:none;stroke-width:8.73179;stroke-linejoin:miter;stroke-miterlimit:4;stroke-dasharray:none;stroke-dashoffset:0;paint-order:normal"/><ellipse cx="224.318" cy="230.66" rx="13.006" ry="30.097" style="opacity:1;fill:#2b1100;fill-opacity:1;fill-rule:evenodd;stroke:none;stroke-width:8.73179;stroke-linejoin:miter;stroke-miterlimit:4;stroke-dasharray:none;stroke-dashoffset:0;paint-order:normal" transform="rotate(14.626) skewX(-.103)"/><ellipse cx="246.219" cy="147.79" rx="12.545" ry="27.775" style="opacity:1;fill:#2b1100;fill-opacity:1;fill-rule:evenodd;stroke:none;stroke-width:8.73179;stroke-linejoin:miter;stroke-miterlimit:4;stroke-dasharray:none;stroke-dashoffset:0;paint-order:normal"/><ellipse cx="258.299" cy="175.565" rx="14.403" ry="16.665" style="opacity:1;fill:#2b1100;fill-opacity:1;fill-rule:evenodd;stroke:none;stroke-width:8.73179;stroke-linejoin:miter;stroke-miterlimit:4;stroke-dasharray:none;stroke-dashoffset:0;paint-order:normal"/><ellipse cx="277.348" cy="207.97" rx="18.585" ry="24.998" style="opacity:1;fill:#2b1100;fill-opacity:1;fill-rule:evenodd;stroke:none;stroke-width:8.73179;stroke-linejoin:miter;stroke-miterlimit:4;stroke-dasharray:none;stroke-dashoffset:0;paint-order:normal"/><ellipse cx="288.034" cy="238.986" rx="14.403" ry="18.054" style="opacity:1;fill:#2b001b;fill-opacity:1;fill-rule:evenodd;stroke:none;stroke-width:8.73179;stroke-linejoin:miter;stroke-miterlimit:4;stroke-dasharray:none;stroke-dashoffset:0;paint-order:normal"/><ellipse cx="247.613" cy="205.192" rx="20.443" ry="33.331" style="opacity:1;fill:#000;fill-opacity:1;fill-rule:evenodd;stroke:none;stroke-width:8.73179;stroke-linejoin:miter;stroke-miterlimit:4;stroke-dasharray:none;stroke-dashoffset:0;paint-order:normal"/><ellipse cx="256.905" cy="251.484" rx="16.726" ry="23.146" style="opacity:1;fill:#2b1100;fill-opacity:1;fill-rule:evenodd;stroke:none;stroke-width:8.73179;stroke-linejoin:miter;stroke-miterlimit:4;stroke-dasharray:none;stroke-dashoffset:0;paint-order:normal"/><ellipse cx="264.803" cy="289.444" rx="16.262" ry="20.369" style="opacity:1;fill:#2b1100;fill-opacity:1;fill-rule:evenodd;stroke:none;stroke-width:8.73179;stroke-linejoin:miter;stroke-miterlimit:4;stroke-dasharray:none;stroke-dashoffset:0;paint-order:normal"/><ellipse cx="220.2" cy="214.451" rx="14.403" ry="30.553" style="opacity:1;fill:#4d1e03;fill-opacity:1;fill-rule:evenodd;stroke:none;stroke-width:8.73179;stroke-linejoin:miter;stroke-miterlimit:4;stroke-dasharray:none;stroke-dashoffset:0;paint-order:normal"/><ellipse cx="229.492" cy="260.743" rx="8.828" ry="30.553" style="opacity:1;fill:#2b1100;fill-opacity:1;fill-rule:evenodd;stroke:none;stroke-width:8.73179;stroke-linejoin:miter;stroke-miterlimit:4;stroke-dasharray:none;stroke-dashoffset:0;paint-order:normal"/><ellipse cx="177.209" cy="316.948" rx="8.827" ry="25.926" style="opacity:1;fill:#2b1100;fill-opacity:1;fill-rule:evenodd;stroke:none;stroke-width:8.73179;stroke-linejoin:miter;stroke-miterlimit:4;stroke-dasharray:none;stroke-dashoffset:0;paint-order:normal" transform="rotate(-8.785) skewX(.063)"/><ellipse cx="234.139" cy="314.905" rx="16.262" ry="21.757" style="opacity:1;fill:#2b1100;fill-opacity:1;fill-rule:evenodd;stroke:none;stroke-width:8.73179;stroke-linejoin:miter;stroke-miterlimit:4;stroke-dasharray:none;stroke-dashoffset:0;paint-order:normal"/><ellipse cx="262.48" cy="100.571" rx="26.948" ry="34.256" style="opacity:1;fill:#2b1100;fill-opacity:1;fill-rule:evenodd;stroke:none;stroke-width:8.73179;stroke-linejoin:miter;stroke-miterlimit:4;stroke-dasharray:none;stroke-dashoffset:0;paint-order:normal"/><ellipse cx="295.933" cy="113.996" rx="32.523" ry="24.535" style="opacity:1;fill:#2b1100;fill-opacity:1;fill-rule:evenodd;stroke:none;stroke-width:8.73179;stroke-linejoin:miter;stroke-miterlimit:4;stroke-dasharray:none;stroke-dashoffset:0;paint-order:normal"/><ellipse cx="100.989" cy="-313.805" rx="17.13" ry="29.733" style="opacity:1;fill:#2b1100;fill-opacity:1;fill-rule:evenodd;stroke:none;stroke-width:8.73179;stroke-linejoin:miter;stroke-miterlimit:4;stroke-dasharray:none;stroke-dashoffset:0;paint-order:normal" transform="rotate(99.227) skewX(.066)"/><ellipse cx="279.207" cy="154.27" rx="24.16" ry="21.294" style="opacity:1;fill:#2b1100;fill-opacity:1;fill-rule:evenodd;stroke:none;stroke-width:8.73179;stroke-linejoin:miter;stroke-miterlimit:4;stroke-dasharray:none;stroke-dashoffset:0;paint-order:normal"/><ellipse cx="307.084" cy="192.693" rx="24.16" ry="18.98" style="opacity:1;fill:#2b1100;fill-opacity:1;fill-rule:evenodd;stroke:none;stroke-width:8.73179;stroke-linejoin:miter;stroke-miterlimit:4;stroke-dasharray:none;stroke-dashoffset:0;paint-order:normal"/><ellipse cx="365.894" cy="-30.743" rx="26.948" ry="21.294" style="opacity:1;fill:#000;fill-opacity:1;fill-rule:evenodd;stroke:none;stroke-width:8.73179;stroke-linejoin:miter;stroke-miterlimit:4;stroke-dasharray:none;stroke-dashoffset:0;paint-order:normal" transform="rotate(30.635)"/><ellipse cx="65.854" cy="248.41" rx="16.898" ry="20.064" style="opacity:1;fill:#2b1100;fill-opacity:1;fill-rule:evenodd;stroke:none;stroke-width:6.75755;stroke-linejoin:miter;stroke-miterlimit:4;stroke-dasharray:none;stroke-dashoffset:0;paint-order:normal" transform="matrix(.52477 -.85124 .8475 .5308 0 0)"/><ellipse cx="274.042" cy="81.563" rx="12.87" ry="12.972" style="opacity:1;fill:#2b001b;fill-opacity:1;fill-rule:evenodd;stroke:none;stroke-width:6.75747;stroke-linejoin:miter;stroke-miterlimit:4;stroke-dasharray:none;stroke-dashoffset:0;paint-order:normal"/><g style="fill:#2b001b;fill-opacity:1" transform="matrix(1.2934 .37318 -.37615 1.30367 8.926 -66.391)"><ellipse cx="12.97" cy="112.813" rx="15.403" ry="8.232" style="opacity:1;fill:#2b001b;fill-opacity:1;fill-rule:evenodd;stroke:none;stroke-width:4.99999;stroke-linejoin:miter;stroke-miterlimit:4;stroke-dasharray:none;stroke-dashoffset:0;paint-order:normal" transform="rotate(-25.347)"/><ellipse cx="-11.11" cy="118.285" rx="13.013" ry="5.842" style="opacity:1;fill:#2b001b;fill-opacity:1;fill-rule:evenodd;stroke:none;stroke-width:4.99999;stroke-linejoin:miter;stroke-miterlimit:4;stroke-dasharray:none;stroke-dashoffset:0;paint-order:normal" transform="rotate(-28.951)"/><ellipse cx="-51.955" cy="116.31" rx="13.278" ry="5.842" style="opacity:1;fill:#2b001b;fill-opacity:1;fill-rule:evenodd;stroke:none;stroke-width:4.99999;stroke-linejoin:miter;stroke-miterlimit:4;stroke-dasharray:none;stroke-dashoffset:0;paint-order:normal" transform="rotate(-40.54)"/></g><ellipse cx="256.108" cy="130.753" rx="22.801" ry="25.203" style="opacity:1;fill:#000;fill-opacity:1;fill-rule:evenodd;stroke:none;stroke-width:8.73179;stroke-linejoin:miter;stroke-miterlimit:4;stroke-dasharray:none;stroke-dashoffset:0;paint-order:normal"/><ellipse cx="285.322" cy="179.74" rx="24.226" ry="18.104" style="opacity:1;fill:#301a0e;fill-opacity:1;fill-rule:evenodd;stroke:none;stroke-width:8.73179;stroke-linejoin:miter;stroke-miterlimit:4;stroke-dasharray:none;stroke-dashoffset:0;paint-order:normal"/><ellipse cx="233.306" cy="239.375" rx="12.113" ry="11.714" style="opacity:1;fill:#301a0e;fill-opacity:1;fill-rule:evenodd;stroke:none;stroke-width:8.73179;stroke-linejoin:miter;stroke-miterlimit:4;stroke-dasharray:none;stroke-dashoffset:0;paint-order:normal"/><ellipse cx="155.403" cy="43.608" rx="26.755" ry="23.665" style="opacity:1;fill:#2b1100;fill-opacity:1;fill-rule:evenodd;stroke:none;stroke-width:6.75747;stroke-linejoin:miter;stroke-miterlimit:4;stroke-dasharray:none;stroke-dashoffset:0;paint-order:normal"/><ellipse cx="145.575" cy="20.493" rx="19.11" ry="24.766" style="opacity:1;fill:#2b1100;fill-opacity:1;fill-rule:evenodd;stroke:none;stroke-width:6.75747;stroke-linejoin:miter;stroke-miterlimit:4;stroke-dasharray:none;stroke-dashoffset:0;paint-order:normal"/><ellipse cx="195.262" cy="34.252" rx="22.932" ry="23.115" style="opacity:1;fill:#2b1100;fill-opacity:1;fill-rule:evenodd;stroke:none;stroke-width:6.75747;stroke-linejoin:miter;stroke-miterlimit:4;stroke-dasharray:none;stroke-dashoffset:0;paint-order:normal"/><ellipse cx="83.33" cy="30.95" rx="24.57" ry="18.712" style="opacity:1;fill:#4d1e03;fill-opacity:1;fill-rule:evenodd;stroke:none;stroke-width:6.75747;stroke-linejoin:miter;stroke-miterlimit:4;stroke-dasharray:none;stroke-dashoffset:0;paint-order:normal"/><g style="fill:#4d1e03;fill-opacity:1" transform="matrix(.93778 .96943 -.96692 .94817 95.76 -81.182)"><ellipse cx="12.97" cy="112.813" rx="15.403" ry="8.232" style="opacity:1;fill:#4d1e03;fill-opacity:1;fill-rule:evenodd;stroke:none;stroke-width:4.99999;stroke-linejoin:miter;stroke-miterlimit:4;stroke-dasharray:none;stroke-dashoffset:0;paint-order:normal" transform="rotate(-25.347)"/><ellipse cx="-11.11" cy="118.285" rx="13.013" ry="5.842" style="opacity:1;fill:#4d1e03;fill-opacity:1;fill-rule:evenodd;stroke:none;stroke-width:4.99999;stroke-linejoin:miter;stroke-miterlimit:4;stroke-dasharray:none;stroke-dashoffset:0;paint-order:normal" transform="rotate(-28.951)"/><ellipse cx="-51.955" cy="116.31" rx="13.278" ry="5.842" style="opacity:1;fill:#4d1e03;fill-opacity:1;fill-rule:evenodd;stroke:none;stroke-width:4.99999;stroke-linejoin:miter;stroke-miterlimit:4;stroke-dasharray:none;stroke-dashoffset:0;paint-order:normal" transform="rotate(-40.54)"/></g><g transform="matrix(.91156 1.33818 -1.35853 .86587 169.043 -104.35)"><ellipse cx="12.97" cy="112.813" rx="15.403" ry="8.232" style="opacity:1;fill:#2b1100;fill-opacity:1;fill-rule:evenodd;stroke:none;stroke-width:4.99999;stroke-linejoin:miter;stroke-miterlimit:4;stroke-dasharray:none;stroke-dashoffset:0;paint-order:normal" transform="rotate(-25.347)"/><ellipse cx="-11.11" cy="118.285" rx="13.013" ry="5.842" style="opacity:1;fill:#2b1100;fill-opacity:1;fill-rule:evenodd;stroke:none;stroke-width:4.99999;stroke-linejoin:miter;stroke-miterlimit:4;stroke-dasharray:none;stroke-dashoffset:0;paint-order:normal" transform="rotate(-28.951)"/><ellipse cx="-51.955" cy="116.31" rx="13.278" ry="5.842" style="opacity:1;fill:#2b1100;fill-opacity:1;fill-rule:evenodd;stroke:none;stroke-width:4.99999;stroke-linejoin:miter;stroke-miterlimit:4;stroke-dasharray:none;stroke-dashoffset:0;paint-order:normal" transform="rotate(-40.54)"/></g><ellipse cx="156.225" cy="252.58" rx="16.726" ry="25.924" style="opacity:1;fill:#2b1100;fill-opacity:1;fill-rule:evenodd;stroke:none;stroke-width:8.73179;stroke-linejoin:miter;stroke-miterlimit:4;stroke-dasharray:none;stroke-dashoffset:0;paint-order:normal"/><ellipse cx="158.083" cy="289.151" rx="26.019" ry="30.09" style="opacity:1;fill:#000;fill-opacity:1;fill-rule:evenodd;stroke:none;stroke-width:8.73179;stroke-linejoin:miter;stroke-miterlimit:4;stroke-dasharray:none;stroke-dashoffset:0;paint-order:normal"/><ellipse cx="147.861" cy="329.426" rx="15.797" ry="24.998" style="opacity:1;fill:#2b1100;fill-opacity:1;fill-rule:evenodd;stroke:none;stroke-width:8.73179;stroke-linejoin:miter;stroke-miterlimit:4;stroke-dasharray:none;stroke-dashoffset:0;paint-order:normal"/><ellipse cx="222.454" cy="198.248" rx="20.908" ry="27.775" style="opacity:1;fill:#301a0e;fill-opacity:1;fill-rule:evenodd;stroke:none;stroke-width:8.73179;stroke-linejoin:miter;stroke-miterlimit:4;stroke-dasharray:none;stroke-dashoffset:0;paint-order:normal" transform="rotate(19.599)"/><ellipse cx="123.701" cy="291.929" rx="10.222" ry="22.683" style="opacity:1;fill:#2b1100;fill-opacity:1;fill-rule:evenodd;stroke:none;stroke-width:8.73179;stroke-linejoin:miter;stroke-miterlimit:4;stroke-dasharray:none;stroke-dashoffset:0;paint-order:normal"/><ellipse cx="190.755" cy="275.976" rx="13.006" ry="30.097" style="opacity:1;fill:#2b1100;fill-opacity:1;fill-rule:evenodd;stroke:none;stroke-width:8.73179;stroke-linejoin:miter;stroke-miterlimit:4;stroke-dasharray:none;stroke-dashoffset:0;paint-order:normal" transform="rotate(14.626) skewX(-.103)"/><ellipse cx="244.037" cy="274.338" rx="14.403" ry="18.054" style="opacity:1;fill:#2b1100;fill-opacity:1;fill-rule:evenodd;stroke:none;stroke-width:8.73179;stroke-linejoin:miter;stroke-miterlimit:4;stroke-dasharray:none;stroke-dashoffset:0;paint-order:normal"/><ellipse cx="212.908" cy="286.837" rx="16.726" ry="23.146" style="opacity:1;fill:#2b1100;fill-opacity:1;fill-rule:evenodd;stroke:none;stroke-width:8.73179;stroke-linejoin:miter;stroke-miterlimit:4;stroke-dasharray:none;stroke-dashoffset:0;paint-order:normal"/><ellipse cx="220.806" cy="324.796" rx="16.262" ry="20.369" style="opacity:1;fill:#000;fill-opacity:1;fill-rule:evenodd;stroke:none;stroke-width:8.73179;stroke-linejoin:miter;stroke-miterlimit:4;stroke-dasharray:none;stroke-dashoffset:0;paint-order:normal"/><ellipse cx="185.495" cy="296.095" rx="8.828" ry="30.553" style="opacity:1;fill:#2b1100;fill-opacity:1;fill-rule:evenodd;stroke:none;stroke-width:8.73179;stroke-linejoin:miter;stroke-miterlimit:4;stroke-dasharray:none;stroke-dashoffset:0;paint-order:normal"/><ellipse cx="128.298" cy="345.165" rx="8.827" ry="25.926" style="opacity:1;fill:#2b001b;fill-opacity:1;fill-rule:evenodd;stroke:none;stroke-width:8.73179;stroke-linejoin:miter;stroke-miterlimit:4;stroke-dasharray:none;stroke-dashoffset:0;paint-order:normal" transform="rotate(-8.785) skewX(.063)"/><ellipse cx="190.142" cy="350.257" rx="16.262" ry="21.757" style="opacity:1;fill:#2b1100;fill-opacity:1;fill-rule:evenodd;stroke:none;stroke-width:8.73179;stroke-linejoin:miter;stroke-miterlimit:4;stroke-dasharray:none;stroke-dashoffset:0;paint-order:normal"/><ellipse cx="189.309" cy="274.727" rx="12.113" ry="11.714" style="opacity:1;fill:#4d1e03;fill-opacity:1;fill-rule:evenodd;stroke:none;stroke-width:8.73179;stroke-linejoin:miter;stroke-miterlimit:4;stroke-dasharray:none;stroke-dashoffset:0;paint-order:normal"/><ellipse cx="-113.089" cy="-22.768" rx="12.56" ry="16.769" style="opacity:1;fill:#2b1100;fill-opacity:1;fill-rule:evenodd;stroke:none;stroke-width:6.08562;stroke-linejoin:miter;stroke-miterlimit:4;stroke-dasharray:none;stroke-dashoffset:0;paint-order:normal" transform="matrix(-.95164 -.30722 .44259 -.89673 0 0)"/><ellipse cx="-111.693" cy=".888" rx="19.538" ry="19.464" style="opacity:1;fill:#2b1100;fill-opacity:1;fill-rule:evenodd;stroke:none;stroke-width:6.08562;stroke-linejoin:miter;stroke-miterlimit:4;stroke-dasharray:none;stroke-dashoffset:0;paint-order:normal" transform="matrix(-.95164 -.30722 .44259 -.89673 0 0)"/><ellipse cx="-119.369" cy="26.94" rx="11.862" ry="16.17" style="opacity:1;fill:#2b1100;fill-opacity:1;fill-rule:evenodd;stroke:none;stroke-width:6.08562;stroke-linejoin:miter;stroke-miterlimit:4;stroke-dasharray:none;stroke-dashoffset:0;paint-order:normal" transform="matrix(-.95164 -.30722 .44259 -.89673 0 0)"/><ellipse cx="-130.882" cy="-20.971" rx="15.7" ry="17.967" style="opacity:1;fill:#2b1100;fill-opacity:1;fill-rule:evenodd;stroke:none;stroke-width:6.08562;stroke-linejoin:miter;stroke-miterlimit:4;stroke-dasharray:none;stroke-dashoffset:0;paint-order:normal" transform="matrix(-.95164 -.30722 .44259 -.89673 0 0)"/><ellipse cx="-137.511" cy="2.685" rx="7.676" ry="14.673" style="opacity:1;fill:#2b1100;fill-opacity:1;fill-rule:evenodd;stroke:none;stroke-width:6.08562;stroke-linejoin:miter;stroke-miterlimit:4;stroke-dasharray:none;stroke-dashoffset:0;paint-order:normal" transform="matrix(-.95164 -.30722 .44259 -.89673 0 0)"/><ellipse cx="-129.193" cy="51.012" rx="9.379" ry="20.471" style="opacity:1;fill:#2b1100;fill-opacity:1;fill-rule:evenodd;stroke:none;stroke-width:6.1153;stroke-linejoin:miter;stroke-miterlimit:4;stroke-dasharray:none;stroke-dashoffset:0;paint-order:normal" transform="matrix(-.8586 -.51266 .6742 -.73856 0 0)"/><ellipse cx="-87.281" cy="11.585" rx="10.816" ry="11.678" style="opacity:1;fill:#2b1100;fill-opacity:1;fill-rule:evenodd;stroke:none;stroke-width:6.08562;stroke-linejoin:miter;stroke-miterlimit:4;stroke-dasharray:none;stroke-dashoffset:0;paint-order:normal" transform="matrix(-.82917 -.559 .67383 -.73889 0 0)"/><ellipse cx="-110.657" cy="19.67" rx="12.56" ry="14.972" style="opacity:1;fill:#301a0e;fill-opacity:1;fill-rule:evenodd;stroke:none;stroke-width:6.08562;stroke-linejoin:miter;stroke-miterlimit:4;stroke-dasharray:none;stroke-dashoffset:0;paint-order:normal" transform="matrix(-.82917 -.559 .67383 -.73889 0 0)"/><ellipse cx="-111.168" cy="38.877" rx="12.211" ry="13.176" style="opacity:1;fill:#2b1100;fill-opacity:1;fill-rule:evenodd;stroke:none;stroke-width:6.08562;stroke-linejoin:miter;stroke-miterlimit:4;stroke-dasharray:none;stroke-dashoffset:0;paint-order:normal" transform="matrix(-.82917 -.559 .67383 -.73889 0 0)"/><ellipse cx="-91.109" cy="5.38" rx="6.629" ry="19.764" style="opacity:1;fill:#2b1100;fill-opacity:1;fill-rule:evenodd;stroke:none;stroke-width:6.08562;stroke-linejoin:miter;stroke-miterlimit:4;stroke-dasharray:none;stroke-dashoffset:0;paint-order:normal" transform="matrix(-.95164 -.30722 .44259 -.89673 0 0)"/><ellipse cx="-99.627" cy="8.796" rx="6.733" ry="16.404" style="opacity:1;fill:#2b1100;fill-opacity:1;fill-rule:evenodd;stroke:none;stroke-width:6.06621;stroke-linejoin:miter;stroke-miterlimit:4;stroke-dasharray:none;stroke-dashoffset:0;paint-order:normal" transform="matrix(-.98316 -.18275 .27336 -.96191 0 0)"/><ellipse cx="-94.062" cy="35.067" rx="12.211" ry="14.074" style="opacity:1;fill:#2b1100;fill-opacity:1;fill-rule:evenodd;stroke:none;stroke-width:6.08562;stroke-linejoin:miter;stroke-miterlimit:4;stroke-dasharray:none;stroke-dashoffset:0;paint-order:normal" transform="matrix(-.95164 -.30722 .44259 -.89673 0 0)"/><ellipse cx="-128.377" cy="11.837" rx="9.096" ry="7.577" style="opacity:1;fill:#2b1100;fill-opacity:1;fill-rule:evenodd;stroke:none;stroke-width:6.08562;stroke-linejoin:miter;stroke-miterlimit:4;stroke-dasharray:none;stroke-dashoffset:0;paint-order:normal" transform="matrix(-.82917 -.559 .67383 -.73889 0 0)"/><ellipse cx="-115.329" cy="118.99" rx="14.822" ry="20.363" style="opacity:1;fill:#2b1100;fill-opacity:1;fill-rule:evenodd;stroke:none;stroke-width:7.2849;stroke-linejoin:miter;stroke-miterlimit:4;stroke-dasharray:none;stroke-dashoffset:0;paint-order:normal" transform="matrix(-.5082 -.86124 .96446 -.26424 0 0)"/><ellipse cx="-113.683" cy="147.716" rx="23.056" ry="23.635" style="opacity:1;fill:#2b1100;fill-opacity:1;fill-rule:evenodd;stroke:none;stroke-width:7.2849;stroke-linejoin:miter;stroke-miterlimit:4;stroke-dasharray:none;stroke-dashoffset:0;paint-order:normal" transform="matrix(-.5082 -.86124 .96446 -.26424 0 0)"/><ellipse cx="-122.74" cy="179.35" rx="13.998" ry="19.635" style="opacity:1;fill:#2b1100;fill-opacity:1;fill-rule:evenodd;stroke:none;stroke-width:7.2849;stroke-linejoin:miter;stroke-miterlimit:4;stroke-dasharray:none;stroke-dashoffset:0;paint-order:normal" transform="matrix(-.5082 -.86124 .96446 -.26424 0 0)"/><ellipse cx="-136.327" cy="121.172" rx="18.527" ry="21.817" style="opacity:1;fill:#2b1100;fill-opacity:1;fill-rule:evenodd;stroke:none;stroke-width:7.2849;stroke-linejoin:miter;stroke-miterlimit:4;stroke-dasharray:none;stroke-dashoffset:0;paint-order:normal" transform="matrix(-.5082 -.86124 .96446 -.26424 0 0)"/><ellipse cx="-144.15" cy="149.897" rx="9.058" ry="17.817" style="opacity:1;fill:#2b1100;fill-opacity:1;fill-rule:evenodd;stroke:none;stroke-width:7.2849;stroke-linejoin:miter;stroke-miterlimit:4;stroke-dasharray:none;stroke-dashoffset:0;paint-order:normal" transform="matrix(-.5082 -.86124 .96446 -.26424 0 0)"/><ellipse cx="-92.636" cy="212.196" rx="10.766" ry="25.498" style="opacity:1;fill:#301a0e;fill-opacity:1;fill-rule:evenodd;stroke:none;stroke-width:7.31224;stroke-linejoin:miter;stroke-miterlimit:4;stroke-dasharray:none;stroke-dashoffset:0;paint-order:normal" transform="matrix(-.29531 -.9554 .99997 -.0079 0 0)"/><ellipse cx="-37.514" cy="136.08" rx="12.763" ry="14.181" style="opacity:1;fill:#4d1e03;fill-opacity:1;fill-rule:evenodd;stroke:none;stroke-width:7.2849;stroke-linejoin:miter;stroke-miterlimit:4;stroke-dasharray:none;stroke-dashoffset:0;paint-order:normal" transform="matrix(-.5082 -.86124 .96446 -.26424 0 0)"/><ellipse cx="-65.1" cy="145.898" rx="14.822" ry="18.181" style="opacity:1;fill:#2b1100;fill-opacity:1;fill-rule:evenodd;stroke:none;stroke-width:7.2849;stroke-linejoin:miter;stroke-miterlimit:4;stroke-dasharray:none;stroke-dashoffset:0;paint-order:normal" transform="matrix(-.5082 -.86124 .96446 -.26424 0 0)"/><ellipse cx="-58.1" cy="175.714" rx="14.41" ry="15.999" style="opacity:1;fill:#2b1100;fill-opacity:1;fill-rule:evenodd;stroke:none;stroke-width:7.2849;stroke-linejoin:miter;stroke-miterlimit:4;stroke-dasharray:none;stroke-dashoffset:0;paint-order:normal" transform="matrix(-.5082 -.86124 .96446 -.26424 0 0)"/><ellipse cx="-89.391" cy="153.17" rx="7.823" ry="23.999" style="opacity:1;fill:#2b1100;fill-opacity:1;fill-rule:evenodd;stroke:none;stroke-width:7.2849;stroke-linejoin:miter;stroke-miterlimit:4;stroke-dasharray:none;stroke-dashoffset:0;paint-order:normal" transform="matrix(-.5082 -.86124 .96446 -.26424 0 0)"/><ellipse cx="-127.235" cy="151.53" rx="8.073" ry="19.495" style="opacity:1;fill:#2b1100;fill-opacity:1;fill-rule:evenodd;stroke:none;stroke-width:7.24117;stroke-linejoin:miter;stroke-miterlimit:4;stroke-dasharray:none;stroke-dashoffset:0;paint-order:normal" transform="matrix(-.61311 -.79 .90337 -.42886 0 0)"/><ellipse cx="-85.274" cy="195.713" rx="14.41" ry="17.09" style="opacity:1;fill:#2b1100;fill-opacity:1;fill-rule:evenodd;stroke:none;stroke-width:7.2849;stroke-linejoin:miter;stroke-miterlimit:4;stroke-dasharray:none;stroke-dashoffset:0;paint-order:normal" transform="matrix(-.5082 -.86124 .96446 -.26424 0 0)"/><ellipse cx="-86.011" cy="136.386" rx="10.734" ry="9.201" style="opacity:1;fill:#2b1100;fill-opacity:1;fill-rule:evenodd;stroke:none;stroke-width:7.2849;stroke-linejoin:miter;stroke-miterlimit:4;stroke-dasharray:none;stroke-dashoffset:0;paint-order:normal" transform="matrix(-.5082 -.86124 .96446 -.26424 0 0)"/><ellipse cx="97.474" cy="206.42" rx="9.693" ry="21.53" style="opacity:1;fill:#2b1100;fill-opacity:1;fill-rule:evenodd;stroke:none;stroke-width:6.75757;stroke-linejoin:miter;stroke-miterlimit:4;stroke-dasharray:none;stroke-dashoffset:0;paint-order:normal" transform="matrix(.68374 -.72972 .7243 .68949 0 0)"/><ellipse cx="106.807" cy="227.95" rx="11.129" ry="12.918" style="opacity:1;fill:#2b1100;fill-opacity:1;fill-rule:evenodd;stroke:none;stroke-width:6.75757;stroke-linejoin:miter;stroke-miterlimit:4;stroke-dasharray:none;stroke-dashoffset:0;paint-order:normal" transform="matrix(.68374 -.72972 .7243 .68949 0 0)"/><ellipse cx="110.038" cy="169.819" rx="20.822" ry="26.554" style="opacity:1;fill:#2b1100;fill-opacity:1;fill-rule:evenodd;stroke:none;stroke-width:6.75757;stroke-linejoin:miter;stroke-miterlimit:4;stroke-dasharray:none;stroke-dashoffset:0;paint-order:normal" transform="matrix(.68374 -.72972 .7243 .68949 0 0)"/><ellipse cx="184.001" cy="-165.385" rx="13.294" ry="22.947" style="opacity:1;fill:#2b1100;fill-opacity:1;fill-rule:evenodd;stroke:none;stroke-width:6.75757;stroke-linejoin:miter;stroke-miterlimit:4;stroke-dasharray:none;stroke-dashoffset:0;paint-order:normal" transform="matrix(.60494 .79627 -.79163 .611 0 0)"/><ellipse cx="122.962" cy="211.443" rx="18.668" ry="16.506" style="opacity:1;fill:#2b1100;fill-opacity:1;fill-rule:evenodd;stroke:none;stroke-width:6.75757;stroke-linejoin:miter;stroke-miterlimit:4;stroke-dasharray:none;stroke-dashoffset:0;paint-order:normal" transform="matrix(.68374 -.72972 .7243 .68949 0 0)"/><ellipse cx="-55.875" cy="162.293" rx="16.927" ry="20.03" style="opacity:1;fill:#2b1100;fill-opacity:1;fill-rule:evenodd;stroke:none;stroke-width:6.75749;stroke-linejoin:miter;stroke-miterlimit:4;stroke-dasharray:none;stroke-dashoffset:0;paint-order:normal" transform="matrix(-.25325 -.9674 .9664 -.25702 0 0)"/><ellipse cx="138.04" cy="138.959" rx="12.924" ry="12.918" style="opacity:1;fill:#2b1100;fill-opacity:1;fill-rule:evenodd;stroke:none;stroke-width:6.75757;stroke-linejoin:miter;stroke-miterlimit:4;stroke-dasharray:none;stroke-dashoffset:0;paint-order:normal" transform="matrix(.68374 -.72972 .7243 .68949 0 0)"/><ellipse cx="105.115" cy="193.214" rx="17.618" ry="19.536" style="opacity:1;fill:#301a0e;fill-opacity:1;fill-rule:evenodd;stroke:none;stroke-width:6.75757;stroke-linejoin:miter;stroke-miterlimit:4;stroke-dasharray:none;stroke-dashoffset:0;paint-order:normal" transform="matrix(.68374 -.72972 .7243 .68949 0 0)"/><ellipse cx="127.687" cy="231.186" rx="18.719" ry="14.033" style="opacity:1;fill:#2b1100;fill-opacity:1;fill-rule:evenodd;stroke:none;stroke-width:6.75757;stroke-linejoin:miter;stroke-miterlimit:4;stroke-dasharray:none;stroke-dashoffset:0;paint-order:normal" transform="matrix(.68374 -.72972 .7243 .68949 0 0)"/><ellipse cx="-163.797" cy="-2.557" rx="9.008" ry="17.918" style="opacity:1;fill:#301a0e;fill-opacity:1;fill-rule:evenodd;stroke:none;stroke-width:7.2854;stroke-linejoin:miter;stroke-miterlimit:4;stroke-dasharray:none;stroke-dashoffset:0;paint-order:normal" transform="matrix(-.97547 -.22014 .46899 -.8832 0 0)"/><ellipse cx="-151.182" cy="58.315" rx="10.705" ry="25.607" style="opacity:1;fill:#000;fill-opacity:1;fill-rule:evenodd;stroke:none;stroke-width:7.30705;stroke-linejoin:miter;stroke-miterlimit:4;stroke-dasharray:none;stroke-dashoffset:0;paint-order:normal" transform="matrix(-.89697 -.4421 .678 -.73506 0 0)"/><ellipse cx="-55.147" cy="138.775" rx="20.882" ry="21.826" style="opacity:1;fill:#000;fill-opacity:1;fill-rule:evenodd;stroke:none;stroke-width:6.75751;stroke-linejoin:miter;stroke-miterlimit:4;stroke-dasharray:none;stroke-dashoffset:0;paint-order:normal" transform="matrix(.32442 -.94591 .94432 .32904 0 0)"/><g transform="matrix(.57162 -1.64751 1.65354 .56953 -85.348 184.982)"><ellipse cx="12.97" cy="112.813" rx="15.403" ry="8.232" style="opacity:1;fill:#2b1100;fill-opacity:1;fill-rule:evenodd;stroke:none;stroke-width:4.99999;stroke-linejoin:miter;stroke-miterlimit:4;stroke-dasharray:none;stroke-dashoffset:0;paint-order:normal" transform="rotate(-25.347)"/><ellipse cx="-11.11" cy="118.285" rx="13.013" ry="5.842" style="opacity:1;fill:#2b1100;fill-opacity:1;fill-rule:evenodd;stroke:none;stroke-width:4.99999;stroke-linejoin:miter;stroke-miterlimit:4;stroke-dasharray:none;stroke-dashoffset:0;paint-order:normal" transform="rotate(-28.951)"/><ellipse cx="-51.955" cy="116.31" rx="13.278" ry="5.842" style="opacity:1;fill:#2b1100;fill-opacity:1;fill-rule:evenodd;stroke:none;stroke-width:4.99999;stroke-linejoin:miter;stroke-miterlimit:4;stroke-dasharray:none;stroke-dashoffset:0;paint-order:normal" transform="rotate(-40.54)"/></g><g style="fill:#2b001b;fill-opacity:1" transform="matrix(1.0118 -.89498 .88792 1.01984 -31.45 90.174)"><ellipse cx="12.97" cy="112.813" rx="15.403" ry="8.232" style="opacity:1;fill:#2b001b;fill-opacity:1;fill-rule:evenodd;stroke:none;stroke-width:4.99999;stroke-linejoin:miter;stroke-miterlimit:4;stroke-dasharray:none;stroke-dashoffset:0;paint-order:normal" transform="rotate(-25.347)"/><ellipse cx="-11.11" cy="118.285" rx="13.013" ry="5.842" style="opacity:1;fill:#2b001b;fill-opacity:1;fill-rule:evenodd;stroke:none;stroke-width:4.99999;stroke-linejoin:miter;stroke-miterlimit:4;stroke-dasharray:none;stroke-dashoffset:0;paint-order:normal" transform="rotate(-28.951)"/><ellipse cx="-51.955" cy="116.31" rx="13.278" ry="5.842" style="opacity:1;fill:#2b001b;fill-opacity:1;fill-rule:evenodd;stroke:none;stroke-width:4.99999;stroke-linejoin:miter;stroke-miterlimit:4;stroke-dasharray:none;stroke-dashoffset:0;paint-order:normal" transform="rotate(-40.54)"/></g><g transform="matrix(1.376 -.85023 .78518 1.40964 -50.466 15.307)"><ellipse cx="12.97" cy="112.813" rx="15.403" ry="8.232" style="opacity:1;fill:#2b1100;fill-opacity:1;fill-rule:evenodd;stroke:none;stroke-width:4.99999;stroke-linejoin:miter;stroke-miterlimit:4;stroke-dasharray:none;stroke-dashoffset:0;paint-order:normal" transform="rotate(-25.347)"/><ellipse cx="-11.11" cy="118.285" rx="13.013" ry="5.842" style="opacity:1;fill:#2b1100;fill-opacity:1;fill-rule:evenodd;stroke:none;stroke-width:4.99999;stroke-linejoin:miter;stroke-miterlimit:4;stroke-dasharray:none;stroke-dashoffset:0;paint-order:normal" transform="rotate(-28.951)"/><ellipse cx="-51.955" cy="116.31" rx="13.278" ry="5.842" style="opacity:1;fill:#2b1100;fill-opacity:1;fill-rule:evenodd;stroke:none;stroke-width:4.99999;stroke-linejoin:miter;stroke-miterlimit:4;stroke-dasharray:none;stroke-dashoffset:0;paint-order:normal" transform="rotate(-40.54)"/></g><ellipse cx="15.188" cy="-139.207" rx="10.863" ry="11.652" style="opacity:1;fill:#2b1100;fill-opacity:1;fill-rule:evenodd;stroke:none;stroke-width:6.09181;stroke-linejoin:miter;stroke-miterlimit:4;stroke-dasharray:none;stroke-dashoffset:0;paint-order:normal" transform="matrix(-.5964 .8027 -.69784 -.71625 0 0)"/><ellipse cx="-26.087" cy="-138.956" rx="9.136" ry="7.56" style="opacity:1;fill:#2b1100;fill-opacity:1;fill-rule:evenodd;stroke:none;stroke-width:6.09181;stroke-linejoin:miter;stroke-miterlimit:4;stroke-dasharray:none;stroke-dashoffset:0;paint-order:normal" transform="matrix(-.5964 .8027 -.69784 -.71625 0 0)"/><g style="fill:#301a0e;fill-opacity:1" transform="matrix(.65647 -1.18687 1.17619 .65588 -83.263 115.197)"><ellipse cx="12.97" cy="112.813" rx="15.403" ry="8.232" style="opacity:1;fill:#301a0e;fill-opacity:1;fill-rule:evenodd;stroke:none;stroke-width:4.99999;stroke-linejoin:miter;stroke-miterlimit:4;stroke-dasharray:none;stroke-dashoffset:0;paint-order:normal" transform="rotate(-25.347)"/><ellipse cx="-11.11" cy="118.285" rx="13.013" ry="5.842" style="opacity:1;fill:#301a0e;fill-opacity:1;fill-rule:evenodd;stroke:none;stroke-width:4.99999;stroke-linejoin:miter;stroke-miterlimit:4;stroke-dasharray:none;stroke-dashoffset:0;paint-order:normal" transform="rotate(-28.951)"/><ellipse cx="-51.955" cy="116.31" rx="13.278" ry="5.842" style="opacity:1;fill:#301a0e;fill-opacity:1;fill-rule:evenodd;stroke:none;stroke-width:4.99999;stroke-linejoin:miter;stroke-miterlimit:4;stroke-dasharray:none;stroke-dashoffset:0;paint-order:normal" transform="rotate(-40.54)"/></g><g transform="matrix(1.1525 -.70677 .6972 1.15728 -77.763 26.748)"><ellipse cx="12.97" cy="112.813" rx="15.403" ry="8.232" style="opacity:1;fill:#2b1100;fill-opacity:1;fill-rule:evenodd;stroke:none;stroke-width:4.99999;stroke-linejoin:miter;stroke-miterlimit:4;stroke-dasharray:none;stroke-dashoffset:0;paint-order:normal" transform="rotate(-25.347)"/><ellipse cx="-11.11" cy="118.285" rx="13.013" ry="5.842" style="opacity:1;fill:#2b1100;fill-opacity:1;fill-rule:evenodd;stroke:none;stroke-width:4.99999;stroke-linejoin:miter;stroke-miterlimit:4;stroke-dasharray:none;stroke-dashoffset:0;paint-order:normal" transform="rotate(-28.951)"/><ellipse cx="-51.955" cy="116.31" rx="13.278" ry="5.842" style="opacity:1;fill:#2b1100;fill-opacity:1;fill-rule:evenodd;stroke:none;stroke-width:4.99999;stroke-linejoin:miter;stroke-miterlimit:4;stroke-dasharray:none;stroke-dashoffset:0;paint-order:normal" transform="rotate(-40.54)"/></g></g><g aria-label="estwood" style="font-style:normal;font-variant:normal;font-weight:400;font-stretch:normal;font-size:53.3333px;line-height:.85;font-family:&quot;Bangla MN&quot;;-inkscape-font-specification:&quot;Bangla MN, Normal&quot;;font-variant-ligatures:normal;font-variant-caps:normal;font-variant-numeric:normal;font-variant-east-asian:normal;text-align:center;white-space:pre;shape-inside:url(#c);fill:#cc2020;fill-opacity:1;stroke:none;stroke-opacity:1" transform="matrix(.26458 0 0 .26458 54.957 69.036)"><path d="M-20.519-163.802q0 .963-.026 1.614-.026.652-.078 1.224h-18.359q0 4.01 2.24 6.172 2.24 2.136 6.458 2.136 1.146 0 2.292-.078 1.145-.105 2.213-.26 1.068-.157 2.031-.34.99-.208 1.823-.442v3.724q-1.849.52-4.192.833-2.318.339-4.818.339-3.36 0-5.781-.912-2.422-.911-3.985-2.63-1.536-1.745-2.291-4.245-.73-2.526-.73-5.703 0-2.76.782-5.208.807-2.474 2.317-4.323 1.537-1.875 3.75-2.969 2.214-1.094 5.026-1.094 2.735 0 4.844.86 2.11.86 3.542 2.448 1.458 1.562 2.187 3.828.755 2.24.755 5.026zm-4.713-.651q.078-1.745-.339-3.177-.416-1.459-1.302-2.5-.859-1.042-2.161-1.615-1.302-.599-3.021-.599-1.484 0-2.708.573-1.224.573-2.11 1.615-.885 1.041-1.432 2.5-.547 1.458-.677 3.203zM7.476-156.484q0 1.38-.468 2.474-.47 1.093-1.277 1.953-.807.833-1.875 1.432-1.067.599-2.291.99-1.198.39-2.474.572-1.276.183-2.5.183-2.656 0-4.896-.235-2.214-.234-4.349-.755v-4.166q2.292.65 4.557.99 2.266.338 4.506.338 3.255 0 4.817-.886 1.563-.885 1.563-2.526 0-.703-.26-1.25-.235-.573-.886-1.068-.651-.52-2.031-1.067-1.354-.547-3.724-1.25-1.771-.521-3.282-1.172-1.484-.677-2.578-1.589-1.093-.911-1.718-2.135-.625-1.224-.625-2.89 0-1.094.494-2.397.521-1.302 1.745-2.421 1.224-1.12 3.307-1.85 2.084-.755 5.209-.755 1.536 0 3.411.183 1.875.156 3.907.573v4.036q-2.136-.52-4.063-.755-1.901-.26-3.307-.26-1.693 0-2.865.26-1.146.26-1.875.73-.703.442-1.015 1.067-.313.599-.313 1.302 0 .703.26 1.276.287.573 1.016 1.12.755.52 2.083 1.067 1.329.521 3.464 1.146 2.318.677 3.906 1.433 1.589.729 2.578 1.64.99.912 1.407 2.057.442 1.146.442 2.605zM37.216-149.714q-1.537.391-3.177.547-1.64.183-3.334.183-4.921 0-7.343-2.214-2.422-2.24-2.422-6.849v-13.646h-7.318v-3.802h7.318v-7.187l4.531-1.172v8.36h11.745v3.801H25.47v13.282q0 2.812 1.484 4.218 1.51 1.38 4.428 1.38 1.25 0 2.734-.182 1.484-.208 3.099-.625zM69.742-175.495l-3.802 26.146h-5.495l-3.776-10.937-.755-2.657-.86 2.813-3.62 10.781h-5.338l-3.776-26.146h4.427l2.188 17.76.468 3.959 1.12-3.464 3.802-11.744h3.255l4.089 11.588 1.172 3.464.39-3.672 2.032-17.89zM97.659-162.63q0 3.047-.86 5.599-.86 2.526-2.474 4.349-1.614 1.797-3.932 2.812-2.318.99-5.26.99-2.813 0-5.053-.86-2.213-.885-3.776-2.578-1.536-1.692-2.37-4.192-.807-2.5-.807-5.756 0-3.047.86-5.547.859-2.526 2.474-4.322 1.614-1.823 3.932-2.813 2.318-1.016 5.26-1.016 2.813 0 5.026.886 2.24.86 3.776 2.552 1.563 1.667 2.37 4.167.834 2.5.834 5.729zm-4.636.208q0-2.422-.547-4.219-.52-1.823-1.51-3.02-.99-1.224-2.422-1.823-1.406-.625-3.151-.625-2.031 0-3.49.807-1.432.781-2.37 2.11-.91 1.327-1.354 3.098-.416 1.745-.416 3.672 0 2.422.52 4.245.547 1.823 1.537 3.047.99 1.198 2.396 1.823 1.406.599 3.177.599 2.031 0 3.463-.782 1.459-.807 2.37-2.135.938-1.328 1.354-3.073.443-1.77.443-3.724zM127.033-162.63q0 3.047-.859 5.599-.86 2.526-2.474 4.349-1.614 1.797-3.932 2.812-2.318.99-5.26.99-2.813 0-5.053-.86-2.213-.885-3.776-2.578-1.536-1.692-2.37-4.192-.807-2.5-.807-5.756 0-3.047.86-5.547.859-2.526 2.474-4.322 1.614-1.823 3.932-2.813 2.318-1.016 5.26-1.016 2.813 0 5.026.886 2.24.86 3.776 2.552 1.563 1.667 2.37 4.167.833 2.5.833 5.729zm-4.635.208q0-2.422-.547-4.219-.52-1.823-1.51-3.02-.99-1.224-2.422-1.823-1.406-.625-3.151-.625-2.031 0-3.49.807-1.432.781-2.37 2.11-.911 1.327-1.354 3.098-.416 1.745-.416 3.672 0 2.422.52 4.245.547 1.823 1.537 3.047.99 1.198 2.396 1.823 1.406.599 3.177.599 2.031 0 3.463-.782 1.459-.807 2.37-2.135.938-1.328 1.354-3.073.443-1.77.443-3.724zM132.32-161.875q0-3.333.911-5.911.912-2.605 2.579-4.375 1.692-1.797 4.036-2.709 2.37-.937 5.26-.937 1.25 0 2.448.156 1.224.156 2.396.495v-10.99h4.557v36.797h-4.062l-.156-4.948q-1.901 2.76-4.115 4.089-2.213 1.328-4.792 1.328-2.24 0-3.958-.938-1.693-.937-2.838-2.63-1.12-1.719-1.693-4.115-.573-2.395-.573-5.312zm4.635-.286q0 4.74 1.38 7.083 1.407 2.318 3.959 2.318 1.719 0 3.62-1.537 1.927-1.536 4.036-4.557v-12.136q-1.12-.52-2.474-.78-1.354-.287-2.682-.287-3.698 0-5.781 2.396-2.058 2.395-2.058 7.5z" style="font-style:normal;font-variant:normal;font-weight:400;font-stretch:normal;font-size:53.3333px;font-family:Consolas;-inkscape-font-specification:Consolas;shape-inside:url(#c)"/></g><path d="M76.012 105.098h5.292c1.323 0 2.646-1.323 2.646-2.677v-18.49h-6.615c3.175 1.059 3.969 1.324 3.969 5.292v13.23l-3.751.01c-2.864-.01-4.187-3.979-4.187-3.979s-1.323 3.969-4.186 3.978l-3.751-.01V89.223c0-3.968.793-4.233 3.968-5.291h-6.614v18.52c0 1.355 1.327 2.646 2.646 2.646h5.291c1.323 0 2.382-1.058 2.646-1.323.265.265 1.323 1.323 2.646 1.323z" style="fill:#cc2020;fill-opacity:1;stroke:none;stroke-width:.410559px;stroke-linecap:butt;stroke-linejoin:miter;stroke-opacity:1" transform="translate(-41.943 -74.522)"/><path d="M91.254 74.522c-1.901 3.082-5.877 2.928-5.921 7.056v13.2l5.297-4.675c-2.493 0-2.493 0-2.493-3.116h9.972c0 3.116 0 3.116-2.493 3.116l5.298 4.675-.028-13.16c-.045-4.128-3.98-4.014-5.881-7.096zm1.87 2.182c2.381 2.649 4.645 2.944 4.985 4.986v2.181h-9.972V81.69c.34-2.042 2.605-2.386 4.986-4.986z" style="fill:#cc2020;fill-opacity:1;fill-rule:evenodd;stroke:none;stroke-width:.483545px;stroke-linecap:butt;stroke-linejoin:miter;stroke-opacity:1" transform="translate(-41.943 -74.522)"/><g aria-label="ly" style="font-style:normal;font-variant:normal;font-weight:400;font-stretch:normal;font-size:14.1111px;line-height:1.25;font-family:Consolas;-inkscape-font-specification:&quot;Consolas, Normal&quot;;font-variant-ligatures:normal;font-variant-caps:normal;font-variant-numeric:normal;font-variant-east-asian:normal;white-space:pre;shape-inside:url(#e);fill:#cc2020;fill-opacity:1;stroke:none" transform="translate(-43.002 -75.582)"><path d="M105.27 85.698h-2.047v-.985h3.26v8.737h2.06v.999h-5.547v-1h2.273zM116.838 87.531l-2.356 6.188q-.366.944-.758 1.626-.386.682-.848 1.116-.461.44-1.013.648-.55.206-1.233.206-.18 0-.324-.007-.145-.007-.317-.02v-1.089q.152.02.33.034.18.021.38.021.33 0 .613-.096.29-.097.544-.317.255-.214.49-.558.234-.345.454-.834l-2.763-6.918h1.365l1.75 4.575.351 1.075.4-1.102 1.619-4.548z" style="font-style:normal;font-variant:normal;font-weight:400;font-stretch:normal;font-size:14.1111px;line-height:1.25;font-family:Consolas;-inkscape-font-specification:&quot;Consolas, Normal&quot;;font-variant-ligatures:normal;font-variant-caps:normal;font-variant-numeric:normal;font-variant-east-asian:normal;white-space:pre;shape-inside:url(#e);fill:#cc2020;fill-opacity:1;stroke:none"/></g><g aria-label="Full-Stack Developer" style="font-style:normal;font-variant:normal;font-weight:400;font-stretch:normal;font-size:5.04856px;line-height:1.25;font-family:Consolas;-inkscape-font-specification:&quot;Consolas, Normal&quot;;font-variant-ligatures:normal;font-variant-caps:normal;font-variant-numeric:normal;font-variant-east-asian:normal;fill:#708090;fill-opacity:1;stroke:none;stroke-width:.315535;stroke-opacity:1"><path d="M64.836 108.219h-1.368v1.045h1.296v.367h-1.296v1.435h-.449v-3.222h1.817zM67.678 111.066h-.384l-.015-.4q-.111.129-.212.215-.099.084-.197.136-.099.051-.2.071-.099.022-.21.022-.382 0-.576-.224-.195-.224-.195-.678v-1.617h.429v1.583q0 .569.429.569.079 0 .153-.022.076-.025.157-.082.084-.059.178-.157.096-.099.214-.25v-1.641h.43zM69.313 107.935h-.733v-.352h1.166v3.125h.738v.358h-1.985v-.358h.814zM72.093 107.935h-.732v-.352h1.166v3.125h.737v.358H71.28v-.358h.813zM75.761 109.924h-1.474v-.404h1.474zM78.875 110.193q0 .23-.094.402-.094.173-.261.288-.168.114-.404.17-.235.057-.518.057-.128 0-.257-.01-.125-.01-.244-.024-.115-.015-.219-.035-.104-.02-.187-.042v-.424q.185.07.414.109.232.039.525.039.212 0 .36-.032.15-.035.244-.099.096-.066.138-.16.044-.094.044-.214 0-.131-.074-.222-.071-.094-.19-.165-.118-.074-.27-.133l-.309-.126q-.158-.064-.31-.138-.15-.077-.27-.178-.117-.103-.191-.241-.072-.138-.072-.328 0-.165.07-.326.068-.16.214-.283.145-.126.372-.202.23-.077.545-.077.081 0 .175.007.096.007.192.023.099.012.192.03.096.017.178.036v.395q-.19-.055-.38-.082-.19-.03-.367-.03-.377 0-.555.126-.177.126-.177.338 0 .13.071.224.074.094.192.168.119.074.27.136.152.059.31.123.157.064.308.14.153.077.271.183.118.103.19.244.074.14.074.333zM81.586 111.031q-.145.037-.3.052-.156.017-.316.017-.466 0-.695-.21-.23-.211-.23-.647v-1.292h-.692v-.36h.693v-.68l.429-.111v.79h1.111v.36h-1.111v1.258q0 .266.14.4.143.13.42.13.118 0 .258-.017.14-.02.293-.06zM83.963 111.066l-.01-.333q-.202.2-.412.288-.207.09-.436.09-.212 0-.363-.055-.15-.054-.248-.148-.097-.096-.143-.224-.045-.128-.045-.279 0-.372.276-.582.279-.212.821-.212h.513v-.217q0-.219-.14-.35-.141-.133-.43-.133-.21 0-.414.047-.202.047-.419.133v-.387q.082-.03.18-.056.101-.03.212-.052.111-.022.232-.035.12-.015.244-.015.224 0 .404.05.18.049.303.15.126.101.193.254.066.153.066.36v1.706zm-.047-1.127h-.545q-.16 0-.276.032-.116.032-.19.091-.074.06-.11.143-.035.082-.035.185 0 .072.022.138.022.064.071.116.05.05.129.08.079.029.192.029.148 0 .338-.089.192-.091.404-.286zM87.076 110.975q-.167.064-.345.093-.175.032-.362.032-.587 0-.905-.318-.316-.318-.316-.929 0-.293.092-.532.09-.24.256-.41.165-.17.394-.261.23-.094.506-.094.192 0 .36.027.167.028.32.09v.408q-.16-.083-.328-.12-.165-.04-.342-.04-.165 0-.313.064-.146.062-.257.18-.11.119-.175.289-.064.17-.064.384 0 .449.217.673.22.222.606.222.176 0 .338-.04.165-.039.318-.118zM90.16 111.066h-.59l-1.153-1.326v1.326h-.429v-3.483h.43v2.14l1.111-1.132h.567l-1.161 1.141zM95.697 109.42q0 .23-.037.443-.035.212-.114.394-.079.183-.204.333-.126.148-.308.254-.183.106-.424.165-.242.057-.55.057h-.69v-3.222h.83q.755 0 1.124.39.373.386.373 1.185zm-.461.031q0-.343-.064-.58-.064-.236-.195-.381-.13-.146-.328-.21-.197-.066-.463-.066h-.378v2.472h.328q1.1 0 1.1-1.235zM98.366 109.698q0 .09-.002.153l-.007.115h-1.738q0 .38.212.585.212.202.611.202.108 0 .217-.007.108-.01.21-.025.1-.015.192-.032.093-.02.172-.042V111q-.175.05-.397.079-.219.032-.456.032-.318 0-.547-.087-.23-.086-.377-.249-.145-.165-.217-.401-.069-.24-.069-.54 0-.262.074-.493.076-.234.22-.41.145-.177.354-.28.21-.104.476-.104.259 0 .459.081.2.082.335.232.138.148.207.362.071.212.071.476zm-.446-.062q.008-.165-.032-.3-.04-.139-.123-.237-.081-.099-.205-.153-.123-.057-.286-.057-.14 0-.256.054-.116.055-.2.153-.083.099-.135.237-.052.138-.064.303zM98.825 108.59h.488l.606 1.638.131.4.136-.41.601-1.627h.471l-.971 2.475h-.493zM103.928 109.698q0 .09-.002.153-.002.061-.007.115h-1.738q0 .38.212.585.212.202.611.202.109 0 .217-.007.109-.01.21-.025.1-.015.192-.032.094-.02.172-.042V111q-.175.05-.396.079-.22.032-.456.032-.318 0-.548-.087-.229-.086-.377-.249-.145-.165-.217-.401-.069-.24-.069-.54 0-.262.074-.493.077-.234.22-.41.145-.177.355-.28.21-.104.475-.104.26 0 .459.081.2.082.335.232.138.148.207.362.072.212.072.476zm-.446-.062q.007-.165-.032-.3-.04-.139-.124-.237-.081-.099-.204-.153-.124-.057-.286-.057-.14 0-.257.054-.115.055-.2.153-.083.099-.135.237-.052.138-.064.303zM105.461 107.935h-.732v-.352h1.166v3.125h.737v.358h-1.984v-.358h.813zM109.553 109.809q0 .288-.081.53-.082.239-.234.411-.153.17-.373.267-.22.093-.498.093-.266 0-.478-.081-.21-.084-.357-.244-.146-.16-.225-.397-.076-.237-.076-.545 0-.288.081-.525.082-.24.235-.41.152-.172.372-.265.22-.096.498-.096.266 0 .476.083.212.082.357.242.148.158.224.394.08.237.08.543zm-.439.02q0-.23-.051-.4-.05-.173-.143-.286-.094-.116-.23-.173-.133-.059-.298-.059-.192 0-.33.077-.136.074-.225.2-.086.125-.128.293-.04.165-.04.347 0 .23.05.402.052.173.146.289.093.113.226.172.133.057.301.057.192 0 .328-.074.138-.077.224-.202.089-.126.128-.291.042-.168.042-.353zM112.294 109.784q0 .33-.093.577-.092.246-.254.409-.163.163-.385.244-.222.081-.48.081-.119 0-.237-.012-.116-.012-.237-.042v1.036h-.429v-3.486h.382l.027.414q.185-.254.395-.355.21-.103.453-.103.212 0 .373.088.16.089.268.252.109.16.163.39.054.226.054.507zm-.438.02q0-.195-.03-.358-.027-.162-.089-.278-.061-.116-.158-.18-.096-.067-.229-.067-.081 0-.165.027-.084.025-.175.087-.089.059-.19.16-.098.098-.212.246v1.2q.118.05.25.08.13.027.255.027.348 0 .545-.234.198-.237.198-.71zM115.05 109.698q0 .09-.002.153-.002.061-.007.115h-1.738q0 .38.212.585.212.202.612.202.108 0 .217-.007.108-.01.21-.025.1-.015.192-.032.093-.02.172-.042V111q-.175.05-.397.079-.22.032-.456.032-.318 0-.547-.087-.23-.086-.377-.249-.146-.165-.217-.401-.07-.24-.07-.54 0-.262.075-.493.076-.234.22-.41.145-.177.354-.28.21-.104.476-.104.259 0 .458.081.2.082.336.232.138.148.207.362.071.212.071.476zm-.446-.062q.007-.165-.032-.3-.04-.139-.123-.237-.081-.099-.205-.153-.123-.057-.286-.057-.14 0-.256.054-.116.055-.2.153-.083.099-.135.237-.052.138-.064.303zM115.842 108.59h.392l.012.457q.22-.264.431-.382.215-.119.432-.119.384 0 .581.25.2.248.185.739h-.433q.007-.325-.097-.47-.1-.149-.298-.149-.086 0-.175.032-.086.03-.18.099-.091.067-.195.173-.103.106-.221.256v1.59h-.434z" style="font-style:normal;font-variant:normal;font-weight:400;font-stretch:normal;font-size:5.04856px;font-family:Consolas;-inkscape-font-specification:&quot;Consolas, Normal&quot;;font-variant-ligatures:normal;font-variant-caps:normal;font-variant-numeric:normal;font-variant-east-asian:normal;fill:#708090;fill-opacity:1;stroke:none;stroke-width:.315535;stroke-opacity:1" transform="translate(-41.943 -74.522)"/></g></svg>