<svg xmlns="http://www.w3.org/2000/svg" width="17.7" height="24"><path d="M5.701 18.56s-.917.534.653.714c1.902.218 2.874.187 4.97-.211 0 0 .551.346 1.32.646-4.699 2.013-10.633-.118-6.943-1.149m-.575-2.627s-1.028.761.542.924c2.032.209 3.636.227 6.413-.308 0 0 .384.389.987.602-5.679 1.661-12.007.13-7.942-1.218m4.84-4.458c1.158 1.333-.304 2.533-.304 2.533s2.94-1.518 1.59-3.418C9.99 8.818 9.022 7.938 14.257 4.902c0-.001-8.216 2.051-4.292 6.573m6.214 9.029s.68.559-.747.991c-2.712.822-11.288 1.069-13.669.033-.856-.373.75-.89 1.254-.998.527-.114.828-.093.828-.093-.953-.671-6.156 1.317-2.643 1.887 9.58 1.553 17.462-.7 14.977-1.82M6.142 13.21s-4.362 1.036-1.544 1.412c1.19.159 3.561.123 5.77-.062 1.806-.152 3.618-.477 3.618-.477s-.637.272-1.098.587c-4.429 1.165-12.986.623-10.522-.568 2.082-1.006 3.776-.892 3.776-.892m7.824 4.374c4.503-2.34 2.421-4.589.968-4.285a3.446 3.446 0 0 0-.515.138s.132-.207.385-.297c2.875-1.011 5.086 2.981-.928 4.562 0-.001.07-.062.09-.118M11.251 0s2.494 2.494-2.365 6.33c-3.896 3.077-.888 4.832 0 6.836C6.61 11.113 4.941 9.308 6.06 7.627 7.705 5.158 12.258 3.962 11.251 0M6.584 23.924c4.322.277 10.96-.153 11.116-2.198 0 0-.302.775-3.572 1.391-3.688.694-8.239.613-10.937.168 0-.001.553.457 3.393.639"/></svg>