<svg xmlns="http://www.w3.org/2000/svg" width="80" height="80.051"><g style="display:inline"><g style="display:inline;fill:#cc2020;fill-opacity:1"><path d="M50 50h20c5 0 10-5 10-10.12V-30H55c12 4 15 5 15 20v50l-14.178.037C45 40 40 25 40 25s-5 15-15.822 15.037L10 40v-50c0-15 3-16 15-20H0v70c0 5.12 5.017 10 10 10h20c5 0 9-4 10-5 1 1 5 5 10 5z" style="fill:#cc2020;fill-opacity:1;stroke:none;stroke-width:1.55172px;stroke-linecap:butt;stroke-linejoin:miter;stroke-opacity:1" transform="translate(0 30)"/><path d="M34-30c-6.1 9.889-18.857 9.394-19 22.643V35l17-15c-7 0-7 0-7-10h30c0 10 0 10-7 10l17 15-.09-42.227C64.769-20.477 52.139-20.111 46.039-30Zm6 8c8 8 14 8 15 15v7H25v-7c1-7 7-7 15-15z" style="fill:#cc2020;fill-opacity:1;fill-rule:evenodd;stroke:none;stroke-width:1.55172px;stroke-linecap:butt;stroke-linejoin:miter;stroke-opacity:1" transform="translate(0 30)"/></g></g></svg>