<?xml version="1.0" encoding="UTF-8" standalone="no"?>
<svg
   xmlns:dc="http://purl.org/dc/elements/1.1/"
   xmlns:cc="http://creativecommons.org/ns#"
   xmlns:rdf="http://www.w3.org/1999/02/22-rdf-syntax-ns#"
   xmlns:svg="http://www.w3.org/2000/svg"
   xmlns="http://www.w3.org/2000/svg"
   xmlns:sodipodi="http://sodipodi.sourceforge.net/DTD/sodipodi-0.dtd"
   xmlns:inkscape="http://www.inkscape.org/namespaces/inkscape"
   viewBox="0 0 97.1 97"
   version="1.1"
   id="svg944"
   sodipodi:docname="spring.svg"
   inkscape:version="1.0.2 (e86c8708, 2021-01-15)">
  <metadata
     id="metadata948">
    <rdf:RDF>
      <cc:Work
         rdf:about="">
        <dc:format>image/svg+xml</dc:format>
        <dc:type
           rdf:resource="http://purl.org/dc/dcmitype/StillImage" />
      </cc:Work>
    </rdf:RDF>
  </metadata>
  <sodipodi:namedview
     pagecolor="#ffffff"
     bordercolor="#666666"
     borderopacity="1"
     objecttolerance="10"
     gridtolerance="10"
     guidetolerance="10"
     inkscape:pageopacity="0"
     inkscape:pageshadow="2"
     inkscape:window-width="1440"
     inkscape:window-height="900"
     id="namedview946"
     showgrid="false"
     inkscape:zoom="6.8762887"
     inkscape:cx="48.549999"
     inkscape:cy="48.5"
     inkscape:window-x="0"
     inkscape:window-y="0"
     inkscape:window-maximized="0"
     inkscape:current-layer="Layer_2" />
  <defs
     id="defs936">
    <style
       id="style934">.cls-1{fill:#6db33f;}</style>
  </defs>
  <title
     id="title938">Java Spring</title>
  <g
     id="Layer_2"
     data-name="Layer 2">
    <g
       id="logos"
       style="fill:#000000;fill-opacity:1">
      <path
         class="cls-1"
         d="M88.4,5.6a42.32,42.32,0,0,1-5.2,9.1A48.46,48.46,0,1,0,15.5,84l1.8,1.6A48.41,48.41,0,0,0,96.8,52C98.2,39.8,94.5,24.2,88.4,5.6ZM22.5,84.4a4.12,4.12,0,1,1-.6-5.8A4.21,4.21,0,0,1,22.5,84.4ZM88.1,69.9C76.2,85.8,50.6,80.4,34.3,81.2c0,0-2.9.2-5.8.6,0,0,1.1-.5,2.5-1,11.5-4,16.9-4.8,23.9-8.4C68,65.7,81.1,51,83.7,35.8c-5,14.6-20.2,27.2-34,32.3C40.2,71.6,23.1,75,23.1,75l-.7-.4c-11.6-5.7-12-30.9,9.2-39,9.3-3.6,18.1-1.6,28.2-4,10.7-2.5,23.1-10.5,28.1-21C93.5,27.5,100.3,53.7,88.1,69.9Z"
         id="path940"
         style="fill:#000000;fill-opacity:1" />
    </g>
  </g>
</svg>
