<svg xmlns="http://www.w3.org/2000/svg" xml:space="preserve" width="24.956" height="26.098"><path d="m24.47 3.786-6-3.6c-.026-.016-.056-.024-.085-.037-.397-.238-.91-.195-1.24.157L8.728 9.327l-4.64-4.254a1.003 1.003 0 0 0-1.123-.157L.553 6.121a1.001 1.001 0 0 0-.284 1.576l4.989 5.346-4.99 5.346a.999.999 0 0 0 .285 1.576l2.41 1.206a.997.997 0 0 0 1.089-.127l4.879-4.066 8.215 8.802a.998.998 0 0 0 .73.318.994.994 0 0 0 .52-.167c.025-.012.05-.017.074-.03l6-3.6a1 1 0 0 0 .486-.858v-16.8a1 1 0 0 0-.485-.857ZM3.274 19.09l-.63-.314 3.982-4.266.938 1.005Zm13.683 3.556L2.644 7.311l.599-.299 13.713 12.571Zm0-5.776-3.76-3.446 3.76-3.132Zm0-9.182-5.247 4.372-1.507-1.382 6.754-7.236Zm6 13.19-4 2.4V2.808l4 2.4z"/></svg>