<?xml version="1.0" encoding="UTF-8" standalone="no"?>
<svg
   xmlns:dc="http://purl.org/dc/elements/1.1/"
   xmlns:cc="http://creativecommons.org/ns#"
   xmlns:rdf="http://www.w3.org/1999/02/22-rdf-syntax-ns#"
   xmlns:svg="http://www.w3.org/2000/svg"
   xmlns="http://www.w3.org/2000/svg"
   xmlns:sodipodi="http://sodipodi.sourceforge.net/DTD/sodipodi-0.dtd"
   xmlns:inkscape="http://www.inkscape.org/namespaces/inkscape"
   enable-background="new 0 0 32 32"
   version="1.1"
   viewBox="0 0 24.955873 26.098124"
   xml:space="preserve"
   id="svg865"
   sodipodi:docname="vscode.svg"
   width="24.955873"
   height="26.098124"
   inkscape:version="1.0.2 (e86c8708, 2021-01-15)"><title>VS Code</title><metadata
     id="metadata871"><rdf:RDF><cc:Work
         rdf:about=""><dc:format>image/svg+xml</dc:format><dc:type
           rdf:resource="http://purl.org/dc/dcmitype/StillImage" /></cc:Work></rdf:RDF></metadata><defs
     id="defs869" /><sodipodi:namedview
     pagecolor="#ffffff"
     bordercolor="#666666"
     borderopacity="1"
     objecttolerance="10"
     gridtolerance="10"
     guidetolerance="10"
     inkscape:pageopacity="0"
     inkscape:pageshadow="2"
     inkscape:window-width="1440"
     inkscape:window-height="900"
     id="namedview867"
     showgrid="false"
     inkscape:zoom="19.3125"
     inkscape:cx="12.955874"
     inkscape:cy="13.043123"
     inkscape:window-x="0"
     inkscape:window-y="0"
     inkscape:window-maximized="0"
     inkscape:current-layer="svg865" /><g
     id="_x33_0"
     transform="translate(-3.0441261,-2.9568769)" /><g
     id="_x32_9"
     transform="translate(-3.0441261,-2.9568769)" /><g
     id="_x32_8"
     transform="translate(-3.0441261,-2.9568769)" /><g
     id="_x32_7"
     transform="translate(-3.0441261,-2.9568769)" /><g
     id="_x32_6"
     transform="translate(-3.0441261,-2.9568769)" /><g
     id="_x32_5"
     transform="translate(-3.0441261,-2.9568769)" /><g
     id="_x32_4"
     transform="translate(-3.0441261,-2.9568769)" /><g
     id="_x32_3"
     transform="translate(-3.0441261,-2.9568769)" /><g
     id="_x32_2"
     transform="translate(-3.0441261,-2.9568769)" /><g
     id="_x32_1"
     transform="translate(-3.0441261,-2.9568769)" /><g
     id="_x32_0"
     transform="translate(-3.0441261,-2.9568769)" /><g
     id="_x31_8"
     transform="translate(-3.0441261,-2.9568769)" /><g
     id="_x31_7"
     transform="translate(-3.0441261,-2.9568769)" /><g
     id="_x31_6"
     transform="translate(-3.0441261,-2.9568769)" /><g
     id="_x31_5"
     transform="translate(-3.0441261,-2.9568769)" /><g
     id="_x31_4"
     transform="translate(-3.0441261,-2.9568769)" /><g
     id="_x31_3"
     transform="translate(-3.0441261,-2.9568769)" /><g
     id="_x31_2"
     transform="translate(-3.0441261,-2.9568769)" /><g
     id="_x31_1"
     transform="translate(-3.0441261,-2.9568769)" /><g
     id="_x31_0"
     transform="translate(-3.0441261,-2.9568769)"><path
       d="m 27.515,6.743 -6,-3.6 C 21.488,3.127 21.458,3.119 21.429,3.106 21.032,2.868 20.519,2.911 20.19,3.263 L 11.771,12.284 7.131,8.03 C 6.825,7.75 6.377,7.689 6.008,7.873 L 3.597,9.078 C 3.314,9.219 3.115,9.484 3.06,9.795 3.005,10.106 3.098,10.424 3.313,10.654 L 8.302,16 3.313,21.346 c -0.215,0.23 -0.309,0.549 -0.253,0.859 0.056,0.31 0.255,0.576 0.537,0.717 l 2.411,1.206 c 0.142,0.071 0.295,0.105 0.447,0.105 0.229,0 0.457,-0.079 0.641,-0.232 l 4.879,-4.066 8.215,8.802 c 0.197,0.211 0.464,0.318 0.731,0.318 0.183,0 0.359,-0.067 0.52,-0.167 0.024,-0.012 0.05,-0.017 0.073,-0.031 l 6,-3.6 C 27.815,25.077 28,24.751 28,24.4 V 7.6 C 28,7.249 27.815,6.923 27.515,6.743 Z M 6.317,22.046 5.688,21.732 9.669,17.466 10.607,18.471 Z M 20,25.602 5.688,10.268 6.287,9.969 20,22.54 Z M 20,19.826 16.241,16.38 20,13.248 Z M 20,10.644 14.753,15.016 13.246,13.634 20,6.398 Z m 6,13.189 -4,2.4 V 5.766 l 4,2.4 z"
       id="path852" /></g><g
     id="_x39_"
     transform="translate(-3.0441261,-2.9568769)" /><g
     id="_x38_"
     transform="translate(-3.0441261,-2.9568769)" /><g
     id="_x37_"
     transform="translate(-3.0441261,-2.9568769)" /><g
     id="_x36_"
     transform="translate(-3.0441261,-2.9568769)" /><g
     id="_x35_"
     transform="translate(-3.0441261,-2.9568769)" /><g
     id="_x34_"
     transform="translate(-3.0441261,-2.9568769)" /><g
     id="_x33_"
     transform="translate(-3.0441261,-2.9568769)" /><g
     id="_x32_"
     transform="translate(-3.0441261,-2.9568769)" /><g
     id="_x31_"
     transform="translate(-3.0441261,-2.9568769)" /><g
     id="Guides"
     transform="translate(-3.0441261,-2.9568769)" /></svg>
